<svg xmlns="http://www.w3.org/2000/svg" width="1400" height="820" viewBox="0 0 1400 820">
<title>Cycles, parallel fibres, and radial tails depend on the graph</title>
<desc>Three panels show a simple cycle, a two-edge line-identity cycle hidden by a simple projection, and a radial tail ending at a leaf.</desc>
<rect width="1400" height="820" fill="white"/>
<style>text{font-family:Arial,sans-serif;fill:#17212b}.title{font-size:30px;font-weight:bold}.sub{font-size:17px;fill:#5f6b76}.panel{fill:#fbfcfd;stroke:#17212b;stroke-width:2}.head{font-size:20px;font-weight:bold}.body{font-size:16px}.small{font-size:14px;fill:#5f6b76}.edge{stroke:#17212b;stroke-width:5;fill:none}.parallel{stroke:#245b7a;stroke-width:5;fill:none}.tail{stroke:#477a55;stroke-width:5;fill:none}.node{fill:#d9eef8;stroke:#245b7a;stroke-width:2}.leaf{fill:#e4f4e7;stroke:#477a55;stroke-width:2}.dashed{stroke:#8a4f13;stroke-width:3;stroke-dasharray:8 6;fill:none}</style>
<text x="40" y="46" class="title" text-anchor="start">Cycles and radiality are representation-scoped predicates</text>
<text x="40" y="76" class="sub" text-anchor="start">State the vertex/edge set first: a simple projection can hide line identity, while an active state can open a tail.</text>
<rect x="40" y="120" width="415" height="560" rx="14" class="panel"/>
<rect x="492" y="120" width="415" height="560" rx="14" class="panel"/>
<rect x="945" y="120" width="415" height="560" rx="14" class="panel"/>
<text x="65" y="160" class="head" text-anchor="start">simple cycle</text>
<text x="517" y="160" class="head" text-anchor="start">parallel fibre</text>
<text x="970" y="160" class="head" text-anchor="start">radial tail</text>
<path d="M150 430 L285 280 L405 430 Z" class="edge"/>
<circle cx="150" cy="430" r="12" class="node"/><circle cx="285" cy="280" r="12" class="node"/><circle cx="405" cy="430" r="12" class="node"/>
<text x="275" y="520" class="body" text-anchor="middle">one simple cycle: dim ker A = 1</text>
<text x="275" y="555" class="small" text-anchor="middle">endpoints and edges are already identified</text>
<path d="M585 430 C640 370 760 370 815 430" class="parallel"/>
<path d="M585 430 C640 490 760 490 815 430" class="parallel"/>
<circle cx="585" cy="430" r="12" class="node"/><circle cx="815" cy="430" r="12" class="node"/>
<text x="700" y="300" class="body" text-anchor="middle">ℓ₁</text>
<text x="700" y="565" class="body" text-anchor="middle">ℓ₂</text>
<path d="M585 430 L815 430" class="dashed"/>
<text x="700" y="620" class="small" text-anchor="middle">simple projection: one edge</text>
<text x="700" y="645" class="small" text-anchor="middle">identified multigraph: a two-edge cycle</text>
<path d="M1030 350 L1130 350 L1230 430 L1300 530" class="tail"/>
<circle cx="1030" cy="350" r="12" class="node"/><circle cx="1130" cy="350" r="12" class="node"/><circle cx="1230" cy="430" r="12" class="node"/><circle cx="1300" cy="530" r="12" class="leaf"/>
<text x="1300" y="575" class="body" text-anchor="middle">leaf</text>
<text x="1165" y="640" class="small" text-anchor="middle">maximal bridge path ending at a leaf</text>
<text x="40" y="740" class="small" text-anchor="start">Thus “radial” may mean a forest in the simple graph, a forest in the identified multigraph, or an active-state forest after switches/outages are applied.</text>
</svg>
